<?xml version="1.0" encoding="utf-8"?>
<!-- Generator: Adobe Illustrator 19.0.0, SVG Export Plug-In . SVG Version: 6.00 Build 0)  -->
<svg version="1.1" id="dog" xmlns="http://www.w3.org/2000/svg" xmlns:xlink="http://www.w3.org/1999/xlink" x="0px" y="0px"
	 viewBox="0 0 128 128" style="enable-background:new 0 0 128 128;" xml:space="preserve">
<style type="text/css">
	.st0{fill:#008EFF;stroke:#083351;stroke-width:3;stroke-miterlimit:10;}
	.st1{fill:#083351;}
	.st2{fill:#008EFF;}
	.st3{fill:#FFFFFF;}
</style>
<path id="paw2" class="st0" d="M33.8,87.2c4.5,6,4.2,11.9-1.3,16s-21,1.5-25.5-4.5c-4.5-6,3.9-16,9.8-16.1
	C24.2,82.4,29.3,81.2,33.8,87.2z"/>
<path id="paw1" class="st0" d="M119.3,89.3c4.5,6,4.2,11.9-1.3,16c-5.5,4.1-21,1.5-25.5-4.5c-4.5-6,3.9-16,9.8-16.1
	C109.7,84.6,114.8,83.3,119.3,89.3z"/>
<path class="st1" d="M35,101l-0.1-2.8c-0.2-8.1-0.4-8.3-3-10.8l-0.6-0.6c-3-2.9-6-3.8-6-3.8l-2.1-0.7l0-2.2c0-5.8,0.6-10.9,1.7-15.2
	c-0.5,0.4-1,0.8-1.5,1.2c-3,2.3-5.9,3.1-8.6,2.5c-3.3-0.8-5.1-3.6-6-5.1C4,56.2,4.2,45.2,9.2,36.1c2.7-4.9,6.2-7.9,8-9.3
	c0.4-0.3,0.7-0.5,0.9-0.7c3.8-2.6,7.3-3.5,8.8-3.9c0.3-0.1,2.6-0.7,5.5-0.8c1.2,0,2.1,0.2,2.6,0.3c0.1,0,0.2,0.1,0.4,0.1
	c0.6,0,0.8,0.1,1.3,0.2c0.1,0,0.2,0.1,0.5,0.1c0.2,0.1,0.7,0.2,1,0.3l0.3,0.1c1.3,0.4,4.2,1.3,6.5,4.1c0.5,0.6,0.9,1.1,1.2,1.6
	c0.6-0.4,1.3-0.8,2.4-1.1c-0.1-0.3-0.1-0.7-0.1-1.1c0-0.9,0.5-1.8,1.3-2.4c0.7-0.5,1.6-0.8,3.1-1c0.4,0,0.7-0.1,1-0.1
	c0,0-0.1-0.1-0.1-0.1c-1.2-1.1-3-2.8-1.9-5.1c0.2-0.5,0.6-0.9,1-1.2c3-2.2,9.4,1.2,9.7,1.4c1.6,0.9,4.5,2.5,6.2,5.8
	c0.5,0.9,0.7,1.7,0.9,2.3c0.6-0.1,1.3-0.2,2.3-0.1c1.9,0.1,3.3,0.7,4.3,1.1l0.3,0.1c1.9,0.8,4.9,1.8,8.8,2.9
	c0.8-0.8,1.6-1.4,2.4-2.1c2.2-1.7,4.7-2.9,7.3-3.5c4.6-1.1,11.8-1.1,20.1,5.7c10.2,8.2,10.3,20.9,10.2,23.4c0,0.8-0.2,2.9-0.7,5.6
	c-0.8,3.6-1.3,6.1-3.5,8.7c-0.4,0.5-1.2,1.4-2.4,2.2c-2.4,1.8-4.9,2.5-7.4,2.1c-2.6-0.4-4.3-2-5.9-3.6c-0.4-0.4-0.8-0.8-1.1-1.2
	c0.5,2.3,1,4.3,1.3,5.8c1.3,6.5,0.2,10.6,0.1,11.1l-0.6,1.9l-2,0.2c-1.7,0.2-3.4,0.7-4.8,1.6c-0.4,0.2-0.7,0.5-1.1,0.7
	c-1.4,1.1-3.3,3-4.2,5.9c-0.5,1.7-0.7,3.5-0.4,5.3l0.5,3.6L35,101z"/>
<path id="face" class="st2" d="M36.5,25.1c-1-0.3-0.6-0.2-1.3-0.3c-0.7-0.1-1.3-0.4-2.7-0.3c-2.6,0.1-4.7,0.6-4.8,0.7
	c-1.4,0.4-4.5,1.2-7.9,3.5c-1,0.7-5,3.5-8,8.9c-4.1,7.5-5,17.5-0.7,24.4c0.9,1.4,2.1,3.2,4.2,3.7c4.6,1.1,9.7-5.3,10.5-6.4
	c1.4-1.8,2.5-3.7,3.2-5.1c1.2-2.3,2-4.2,2.4-5.3c1.8-4.6,3.3-8.5,4.4-11.6c0.1-0.3,0.2-0.6,0.3-0.9l1.7,0.5c0.3,0.5,0.7,1.3,0.8,2.2
	c0.1,1.9-1.1,3.3-2.1,4.8c-1.5,2.3-0.9,2.8-2.6,7.1c-1.6,4.2-3.2,6.8-4.1,8.3c-1.9,3.6-4,9.6-4,20.7c0,0,3.6,1,7.3,4.6
	c3.7,3.5,4.3,3.5,4.6,13.5l52,1.9c-0.2-1.5-0.4-3.9,0.5-6.6c1.6-5.2,5.7-7.7,6.7-8.3c2.4-1.4,4.7-1.8,6-2c0,0,1.1-3.7-0.2-9.7
	c-1.2-6-4.1-17.9-6.3-23.2s-3.3-10.7-3.3-10.7s1.2-2.7,2.6,0.5c1.4,3.2,6.6,18,6.6,18c1.6,3.9,3.8,6.4,5.3,7.9
	c1.5,1.5,2.6,2.5,4.2,2.7c3.6,0.6,6.5-2.8,7-3.4c1.7-2,2.1-4,2.8-7.4c0.5-2.2,0.6-4.1,0.7-5.1c0.1-3.1-0.4-13.9-9.1-20.9
	c-1.9-1.5-8.9-7.2-17.5-5.1c-5,1.2-8.1,4.5-9.4,6c-5.8-1.6-9-2.7-10.9-3.5c-1.1-0.4-2.1-0.9-3.7-1c-2-0.1-2.7,0.5-3.8,0
	c-1.2-0.6-1-1.9-2-3.8c-1.3-2.5-3.6-3.8-5-4.5c-2.7-1.5-6.2-2.2-6.5-1.5c-0.3,0.6,1.8,1.7,4.7,5.2c1.8,2.1,3.3,4.4,3,4.7
	c-0.3,0.3-2.2-1.8-5.6-2.7c-0.2-0.1-1.6-0.4-3.4-0.2c-0.3,0-1.8,0.2-1.8,0.6c0,0.3,1.1,0.5,3.2,1.4c1.5,0.7,1.9,1,2.1,1.4
	c0.3,0.6,0.1,1.6-0.4,1.9c-0.6,0.3-1.3-0.5-2.7-0.9c-1.8-0.6-3.5-0.1-4,0c-2.5,0.7-2.8,2.2-4,2c-1.1-0.2-1.1-1.2-2.8-3.4
	c-1.9-2.2-4.2-2.9-5.3-3.2C37.4,25.4,36.8,25.1,36.5,25.1z"/>
<path id="eye" class="st3" d="M38.2,59.1c1.1-2,3.2-3.3,5.3-4.2c1.4-0.6,2.9-0.8,4.4-1c0.6-0.1,1.3-0.2,2-0.1c1,0.1,1.8,0.7,2.6,1.2
	c1.4,0.9,2.9,1.9,3.9,3.3c0.8,1.2,1.2,2.7,1.5,4.1c0.5,2.3,0.7,4.8,0.4,7.1c-0.3,2.4-1.1,4.8-2.5,6.9c-0.5,0.8-1.1,1.7-1.9,2.1
	l-0.9,0.6c-1,0.8-3,1.1-4.3,1.4c-0.8,0.2-1.7,0.3-2.5,0.2c-1-0.1-1.9-0.6-2.7-1.1c-5.2-3.3-8.1-9.9-7.1-15.9L38.2,59.1z"/>
<path id="eye_1_" class="st3" d="M90.4,58.2c-1.3-1.8-3.6-2.7-5.7-3.3c-1.4-0.4-3-0.3-4.4-0.2c-0.6,0-1.3,0.1-1.9,0.3
	c-0.9,0.3-1.7,1-2.4,1.6c-1.3,1.2-2.6,2.4-3.4,4c-0.7,1.4-0.9,2.9-1,4.4c-0.2,2.4-0.1,4.9,0.5,7.2c0.6,2.4,1.7,4.6,3.2,6.4
	c0.6,0.7,1.3,1.5,2.1,1.8l0.9,0.5c1.1,0.6,3.1,0.6,4.4,0.7c0.8,0,1.7,0,2.5-0.2c0.9-0.3,1.8-0.9,2.5-1.6c4.6-4.2,6.7-11.2,4.9-17.1
	L90.4,58.2z"/>
<path id="eyeb" class="st1" d="M83.4,64.4c-0.1,0-0.1,0-0.1,0.1c-0.6,0.4-1.1,0.9-1.3,1.6c-0.1,0.1-0.1,0.3-0.1,0.4
	c0,0.4,0.1,0.8,0.4,1.1c0.1,0.1,0.3,0.2,0.5,0.3c0.3,0.2,0.6,0.3,0.9,0.3c0.7,0.1,1.3-0.4,1.8-0.8c0.7,1.5,0.5,3.3,0.3,4.9
	c-0.2,1-0.4,2-0.8,2.9c-0.2,0.5-0.5,1-0.9,1.4c-0.2,0.2-0.4,0.4-0.6,0.6c-0.3,0.2-0.7,0.3-1.1,0.5c-0.5,0.2-0.8,0.2-1.3,0.3
	c-0.5,0.1-1.1,0.2-1.7,0.1c-0.5-0.1-0.9-0.3-1.3-0.5c-1-0.5-1.9-1.2-2.4-2.2c-0.2-0.4-0.3-0.9-0.5-1.3c-0.3-1-0.6-2-0.5-3
	c0-0.9,0.3-1.7,0.5-2.6c0.4-1.4,0.9-3,2.1-3.8c0.5-0.3,1-0.5,1.6-0.7c0.8-0.3,1.6-0.5,2.4-0.4C81.9,63.4,82.9,63.7,83.4,64.4"/>
<path id="eyeb_1_" class="st1" d="M52.4,63.3c-0.1,0-0.1,0-0.1,0.1c-0.6,0.4-1.1,0.9-1.3,1.6c-0.1,0.1-0.1,0.3-0.1,0.4
	c0,0.4,0.1,0.8,0.4,1.1c0.1,0.1,0.3,0.2,0.5,0.3c0.3,0.2,0.6,0.3,0.9,0.3c0.7,0.1,1.3-0.4,1.8-0.8c0.7,1.5,0.5,3.3,0.3,4.9
	c-0.2,1-0.4,2-0.8,2.9c-0.2,0.5-0.5,1-0.9,1.4c-0.2,0.2-0.4,0.4-0.6,0.6c-0.3,0.2-0.7,0.4-1.2,0.5c-0.5,0.2-0.6,0.2-1.2,0.3
	c-0.5,0.1-1.1,0.2-1.7,0.1c-0.5-0.1-1.3-0.5-1.6-0.8c-0.9-0.7-1.6-1-2.1-2c-0.2-0.4-0.3-0.9-0.5-1.3c-0.3-1-0.6-2-0.5-3
	c0-0.9,0.3-1.7,0.5-2.6c0.4-1.4,0.9-3,2.1-3.8c0.5-0.3,1-0.5,1.6-0.7c0.8-0.3,1.6-0.5,2.4-0.4S51.8,62.6,52.4,63.3"/>
<path id="snout" class="st1" d="M65.4,88.6c5.2-0.8,7.6-3.8,7.2-6.4c-0.4-2.9-6-4.2-9.3-4.2c-1.4,0-4.9,0-6.5,2.3
	c-0.1,0.2-0.9,1.4-0.7,2.9c0.3,1.9,1.9,2.9,3,3.7c0.5,0.3,2,1.3,4.1,1.6c0.1,0.7,0.3,2.3-0.5,4.1c-0.3,0.7-0.8,1.9-2.1,2.6
	c-1.5,0.9-3.7,1-5.4-0.3c-1.7-1.3-2.4-3.7-1.5-5.8c0,0-1.3-2.3-2.3-0.4c-0.9,1.9-0.1,5.1-0.1,5.1c0.4,0.9,1.1,1.9,1.7,2.7
	c0.6,0.8,1.5,1.1,2.4,1.5c1,0.4,1.9,0.3,2.5,0.2c3.1-0.3,5.1-2.5,5.7-3.2c0.2,0.3,0.6,0.8,1.1,1.3c0.1,0.1,1.7,1.8,3.3,2.4
	c2.7,1.1,6.8-0.4,8.6-3.4c1.4-2.4,1.4-5.8,0.3-6.3c-0.5-0.2-1.3-0.1-1.6,0.4c-0.3,0.4-0.1,0.9-0.1,1.8c-0.1,0.8-0.3,1.4-0.6,1.9
	c-0.2,0.4-1.2,2.7-3.5,3.1c-2.2,0.4-3.9-1.1-4.3-1.5c-1-0.9-1.3-2-1.5-2.6l-0.1-3.2L65.4,88.6z"/>
</svg>
