<?xml version="1.0" encoding="utf-8"?>
<!-- Generator: Adobe Illustrator 19.0.0, SVG Export Plug-In . SVG Version: 6.00 Build 0)  -->
<svg version="1.1" xmlns="http://www.w3.org/2000/svg" xmlns:xlink="http://www.w3.org/1999/xlink" x="0px" y="0px"
	 viewBox="0 0 612 612" style="enable-background:new 0 0 612 612;" xml:space="preserve">
<style type="text/css">
	.st0{display:none;}
	.st1{fill:#1D9300;}
	.st2{fill:#008EFF;stroke:#083351;stroke-width:3;stroke-miterlimit:10;}
	.st3{fill:#083351;}
	.st4{fill:#008EFF;}
	.st5{fill:#FFFFFF;}
	.st6{fill:#0074E8;}
</style>
<g id="bg" class="st0">
	<rect id="green" x="298" y="-488" class="st1" width="628" height="798"/>
	
		<image style="overflow:visible;opacity:0.49;" width="1024" height="1024" id="ref" xlink:href="metapet2.png"  transform="matrix(0.5977 0 0 0.5977 306 -347.0156)">
	</image>
</g>
<g id="dog">
	<path id="paw2" class="st2" d="M383.8,331.5c0,7.5-3.8,12-10.7,12c-6.9,0-17.7-11.5-17.7-19c0-7.5,12.7-10.5,17.5-7
		C379,321.9,383.8,324,383.8,331.5z"/>
	<path id="paw1" class="st2" d="M450.8,384.6c0,7.5-3.8,12-10.7,12c-6.9,0-17.7-11.5-17.7-19s12.7-10.5,17.5-7
		C446,375,450.8,377.1,450.8,384.6z"/>
	<path class="st3" d="M376.4,343.2l1.6-2.3c4.7-6.6,4.7-6.9,4.1-10.4l-0.1-0.8c-0.7-4.1-2.5-6.7-2.5-6.7l-1.3-1.8l1.3-1.8
		c3.5-4.6,7-8.4,10.5-11.1c-0.6,0.1-1.3,0.1-1.9,0.1c-3.8,0-6.6-1.1-8.4-3.2c-2.2-2.6-1.9-5.9-1.8-7.7c0.7-8.6,7.5-17.3,16.9-21.6
		c5.1-2.3,9.7-2.6,12-2.6c0.5,0,0.9,0,1.1,0c4.6,0.2,7.9,1.6,9.4,2.1c0.3,0.1,2.5,1,4.9,2.7c1,0.7,1.6,1.4,1.9,1.8
		c0.1,0.1,0.2,0.2,0.3,0.3c0.4,0.4,0.6,0.6,0.9,1c0.1,0.1,0.1,0.2,0.3,0.4c0.1,0.2,0.4,0.6,0.6,0.8l0.2,0.3c0.8,1.2,2.5,3.5,2.7,7.2
		c0,0.8,0,1.4,0,2c0.7,0,1.6,0.2,2.6,0.5c0.1-0.3,0.3-0.6,0.6-0.9c0.6-0.7,1.5-1.1,2.5-1.1c0.9,0,1.8,0.3,3.1,1.1
		c0.3,0.2,0.6,0.4,0.9,0.6c0-0.1,0-0.1,0-0.2c-0.3-1.6-0.7-4.1,1.6-5.2c0.5-0.2,1-0.3,1.5-0.3c3.7,0,6.8,6.6,6.9,6.9
		c0.7,1.6,2.1,4.6,1.5,8.3c-0.2,1-0.4,1.8-0.6,2.4c0.5,0.3,1.2,0.7,1.9,1.3c1.5,1.2,2.2,2.5,2.8,3.5l0.2,0.3
		c1.1,1.8,2.9,4.4,5.3,7.6c1.1-0.1,2.1-0.2,3.2-0.2c2.8,0,5.5,0.5,7.9,1.6c4.3,1.9,10.1,6.2,12.6,16.6c3.2,12.7-4.4,22.9-5.9,24.8
		c-0.5,0.6-1.9,2.3-4,4c-2.8,2.4-4.7,4.1-8,4.8c-0.6,0.1-1.8,0.4-3.2,0.4c-3,0-5.5-0.9-7.2-2.7c-1.9-1.9-2.2-4.2-2.5-6.4
		c-0.1-0.5-0.1-1.1-0.2-1.6c-0.9,2.2-1.8,4-2.4,5.4c-2.9,6-6.2,8.6-6.6,8.9l-1.6,1.2l-1.7-1c-1.5-0.9-3.1-1.5-4.8-1.7
		c-0.4,0-0.8-0.1-1.3-0.1c-1.8,0-4.4,0.4-6.9,2.2c-1.4,1-2.6,2.4-3.5,4l-1.7,3.2L376.4,343.2z"/>
	<path id="face" class="st4" d="M423.3,283.5c-0.6-0.8-0.3-0.5-0.9-1c-0.5-0.5-0.8-1.1-1.9-1.9c-2.1-1.5-4.1-2.3-4.3-2.4
		c-1.4-0.5-4.3-1.7-8.4-1.9c-1.2-0.1-6.1-0.2-11.8,2.3c-7.8,3.5-14.5,11-15.2,19.1c-0.1,1.6-0.3,3.8,1.1,5.5
		c3,3.6,10.9,1.6,12.3,1.3c2.2-0.6,4.2-1.5,5.7-2.2c2.4-1.1,4.1-2.1,5.1-2.8c4.2-2.6,7.7-4.8,10.5-6.7c0.3-0.2,0.5-0.3,0.8-0.5
		l1.1,1.4c0,0.6-0.2,1.4-0.7,2.3c-1.1,1.6-2.9,2-4.5,2.6c-2.6,1-2.4,1.7-6.3,4.2c-3.8,2.4-6.7,3.5-8.3,4.2c-3.7,1.7-9,5.3-15.6,14.1
		c0,0,2.3,3,3.1,8s1.3,5.4-4.4,13.5l40.4,32.8c0.7-1.3,2-3.3,4.4-5c4.4-3.2,9.2-2.8,10.3-2.6c2.8,0.3,4.8,1.4,6,2.1
		c0,0,3.1-2.3,5.7-7.8s7.5-16.8,8.9-22.3s3.8-10.5,3.8-10.5s2.5-1.5,1.8,2c-0.8,3.5-5.6,18.4-5.6,18.4c-1,4.1-0.8,7.4-0.5,9.5
		c0.3,2.1,0.6,3.5,1.7,4.7c2.5,2.6,6.9,1.7,7.6,1.5c2.5-0.6,4.1-2,6.7-4.2c1.7-1.5,3-2.9,3.6-3.7c2-2.4,8-11.4,5.3-22.2
		c-0.6-2.3-2.8-11.1-10.9-14.6c-4.7-2-9.2-1.3-11.2-0.8c-3.7-4.8-5.6-7.6-6.6-9.4c-0.6-1-1.1-2-2.3-3c-1.5-1.3-2.5-1.2-3-2.3
		c-0.6-1.2,0.4-2.1,0.7-4.2c0.4-2.8-0.6-5.2-1.3-6.6c-1.3-2.8-3.6-5.5-4.3-5.1c-0.6,0.3,0.4,2.5,0.7,7c0.2,2.8,0,5.5-0.5,5.6
		c-0.5,0.1-0.6-2.8-2.8-5.5c-0.1-0.2-1.1-1.3-2.6-2.2c-0.2-0.1-1.5-0.9-1.8-0.6c-0.2,0.2,0.6,1,1.7,3c0.8,1.5,0.9,1.9,0.8,2.4
		c-0.2,0.7-0.8,1.3-1.4,1.3c-0.7-0.1-0.7-1.1-1.6-2.4c-1.1-1.5-2.7-2.2-3.2-2.4c-2.4-0.9-3.6,0.1-4.4-0.8c-0.8-0.9-0.1-1.6-0.3-4.4
		c-0.2-2.9-1.6-4.8-2.3-5.8C423.8,284.2,423.5,283.7,423.3,283.5z"/>
	<path id="eye" class="st5" d="M404.2,311.7c2.1-0.9,4.6-0.7,6.8-0.2c1.5,0.4,2.8,1.1,4.1,1.9c0.6,0.3,1.1,0.7,1.6,1.1
		c0.7,0.7,1,1.6,1.4,2.5c0.6,1.6,1.2,3.3,1.1,5c-0.1,1.5-0.6,2.9-1.3,4.2c-1,2.2-2.3,4.2-3.9,6c-1.7,1.8-3.8,3.1-6.1,4
		c-0.9,0.3-1.9,0.7-2.8,0.5l-1.1,0c-1.3,0-3.1-0.9-4.3-1.5c-0.8-0.4-1.5-0.7-2.2-1.3c-0.7-0.7-1.2-1.6-1.5-2.5
		c-2.1-5.8-0.5-12.7,3.9-17L404.2,311.7z"/>
	<path id="eye_1_" class="st5" d="M446.5,342.3c0-2.2-1.2-4.3-2.6-6.1c-0.9-1.2-2.2-2-3.4-2.9c-0.5-0.4-1.1-0.7-1.7-0.9
		c-0.9-0.3-1.9-0.2-2.9-0.1c-1.7,0.2-3.5,0.3-5.1,1.1c-1.3,0.7-2.4,1.8-3.4,2.9c-1.6,1.8-3,3.8-4,6c-1,2.2-1.4,4.7-1.3,7.1
		c0.1,0.9,0.1,2,0.7,2.7l0.5,0.9c0.5,1.2,2.1,2.4,3.1,3.2c0.7,0.5,1.3,1.1,2.1,1.4c0.9,0.3,2,0.4,3,0.3c6.2-0.6,12.1-4.9,14.2-10.7
		L446.5,342.3z"/>
	<path id="eyeb" class="st3" d="M437.2,343.1c-0.1,0-0.1,0-0.1,0c-0.7-0.1-1.4,0.1-2,0.4c-0.1,0.1-0.2,0.2-0.3,0.3
		c-0.3,0.3-0.4,0.7-0.3,1.1c0,0.2,0.1,0.4,0.2,0.6c0.1,0.3,0.3,0.6,0.5,0.8c0.5,0.5,1.2,0.5,1.9,0.4c-0.3,1.6-1.6,3-2.8,4.1
		c-0.7,0.7-1.5,1.3-2.4,1.8c-0.5,0.3-1,0.5-1.6,0.6c-0.3,0-0.6,0.1-0.9,0.1c-0.4,0-0.8-0.2-1.1-0.3c-0.5-0.2-0.8-0.3-1.3-0.5
		c-0.5-0.2-1-0.5-1.4-0.9c-0.3-0.4-0.5-0.8-0.7-1.2c-0.4-1-0.8-2.1-0.6-3.2c0.1-0.5,0.2-0.9,0.4-1.3c0.4-1,0.7-1.9,1.4-2.8
		c0.5-0.7,1.2-1.2,1.9-1.8c1.2-0.9,2.5-1.8,3.9-1.8c0.6,0,1.2,0.2,1.7,0.4c0.8,0.3,1.5,0.6,2.2,1.1c0.6,0.5,1.3,1.3,1.3,2.1"/>
	<path id="eyeb_1_" class="st3" d="M413,323.6c-0.1,0-0.1,0-0.1,0c-0.7-0.1-1.4,0.1-2,0.4c-0.1,0.1-0.2,0.2-0.3,0.3
		c-0.3,0.3-0.4,0.7-0.3,1.1c0,0.2,0.1,0.4,0.2,0.6c0.1,0.3,0.3,0.6,0.5,0.8c0.5,0.5,1.2,0.5,1.9,0.4c-0.3,1.6-1.6,3-2.8,4.1
		c-0.7,0.7-1.5,1.3-2.4,1.8c-0.5,0.3-1,0.5-1.6,0.6c-0.3,0-0.6,0.1-0.9,0.1c-0.4,0-0.8-0.1-1.3-0.3c-0.5-0.2-0.6-0.3-1.1-0.5
		c-0.5-0.2-1-0.5-1.4-0.9c-0.3-0.4-0.7-1.1-0.9-1.6c-0.3-1.1-0.6-1.8-0.4-2.8c0.1-0.5,0.2-0.9,0.4-1.3c0.4-1,0.7-1.9,1.4-2.8
		c0.5-0.7,1.2-1.2,1.9-1.8c1.2-0.9,2.5-1.8,3.9-1.8c0.6,0,1.2,0.2,1.7,0.4c0.8,0.3,1.5,0.6,2.2,1.1c0.6,0.5,1.3,1.3,1.3,2.1"/>
	<path id="snout" class="st3" d="M408.2,351.6c4.6,2.5,8.3,1.6,9.6-0.8c1.4-2.6-2.3-7-4.9-9c-1.1-0.8-3.9-3-6.6-2
		c-0.3,0.1-1.6,0.6-2.3,1.9c-0.9,1.7-0.3,3.5,0.2,4.7c0.2,0.6,0.8,2.3,2.3,3.7c-0.3,0.6-1.1,2.1-2.8,3c-0.6,0.4-1.8,1-3.3,0.8
		c-1.7-0.2-3.6-1.5-4.2-3.5c-0.6-2.1,0.3-4.4,2.3-5.6c0,0,0.3-2.6-1.6-1.7c-1.9,0.9-3.2,4-3.2,4c-0.2,1-0.3,2.2-0.3,3.2
		c0,1.1,0.5,1.8,1,2.7c0.6,0.9,1.3,1.4,1.9,1.7c2.6,1.6,5.5,1.1,6.5,0.8c0,0.4,0,1,0.1,1.7c0,0.1,0.3,2.5,1.2,3.9
		c1.5,2.5,5.7,3.7,8.9,2.5c2.5-1,4.6-3.8,4-4.9c-0.2-0.5-1-0.8-1.5-0.7c-0.5,0.1-0.6,0.7-1.2,1.4c-0.5,0.6-1.1,0.9-1.6,1.2
		c-0.4,0.2-2.6,1.4-4.7,0.4c-2-1-2.4-3.2-2.5-3.8c-0.2-1.3,0.2-2.4,0.4-2.9l1.9-2.6L408.2,351.6z"/>
</g>
<g id="text2">
	<polygon id="z_2_" class="st3" points="361.7,420.3 365.4,416.2 381.4,429.9 378.2,433.7 356.5,438.9 366.6,447.7 362.7,452.4 
		345.5,437.2 348.3,434.2 371.3,428.8 	"/>
	<path id="t_2_" class="st3" d="M346.8,407.2l-3-2.9l2.2-2.7l4.4,1.6l6.7-3.2l3.5,3.5l-4,4.7l5.8,5.1l-4.1,4.5l-5.8-5.9L342.1,424
		c-0.2,0.4-0.2,0.8-0.3,1.1c-0.1,2,2,4,5.1,5.2l-3.6,4.6c-0.6-0.3-1.4-0.7-2.3-1.4c-1.6-1.1-7.8-5.3-7.3-10.3
		c0.1-0.8,0.5-2.6,2.5-4.6"/>
	<path id="e_2_" class="st3" d="M338.5,393.6c-1.8-4.4-6.1-6.4-7-6.8c-1.1-0.5-5.3-2.5-10-1c-3.2,1-5,3.1-6.3,4.5
		c-1.2,1.3-3.9,4.4-4.4,9.2c-0.5,5,1.9,8.7,2.8,10.2c3.5,5.5,8.9,7.3,10.5,7.8c3.7-2.6,4.4-3.9,4.2-4.7c-0.2-0.7-1.2-0.6-3.3-1.5
		c-1.1-0.4-3.8-1.6-5.8-4.2c-0.7-0.9-1.7-2.2-1.9-4.1c-0.3-2.7,1.2-5.6,2.4-5.6c0.5,0,0.8,0.6,1.9,1.9c0.2,0.2,1.2,1.2,3.2,3.1
		c3.5,3.3,8.1,7.5,8.5,7.9C338.6,405.5,340.7,398.8,338.5,393.6z M331.7,401.7l-8.3-7.5c2.4-3.1,6.8-3.3,9-1
		C334.4,395.3,334.3,399.3,331.7,401.7z"/>
	<path id="p_2_" class="st3" d="M320.4,367c-1.1-3.1-14.1-14.1-14.1-14.1l-25.2,28.3l6,5.5l9-10.2c0,0,2.4,2.1,6.7,5
		c4.3,2.9,7.3,1.9,7.3,1.9c4.4-0.3,6.9-3.7,6.9-3.7s1.7-0.4,3.3-5.7C322.1,368.9,320.4,367,320.4,367z M311.9,374
		c-4.4,4.1-6.9,1.6-11.1-2.3l-0.4-0.6l7.4-8.1c0.3,0.1,0.5,0.2,0.6,0.3C312.1,365.1,316,370.1,311.9,374z"/>
</g>
<g id="text">
	<path id="a" class="st3" d="M321.6,251.1c-2.6-5-7.5-7.8-11.7-8.7c-0.4-0.1-0.8-0.1-1-0.2l-1.8,5.8l4,1.4c0.3,0.1,0.5,0.2,0.7,0.4
		l4,3.2c0.2,0.2,0.3,0.4,0.3,0.7c0,1-0.2,2.6-1.2,4.1c-0.5,0.8-1,1.3-1.4,1.8c-3.5-4.5-6.7-6.5-8.5-7.5c-0.7-0.4-1.4-0.7-2.3-0.9
		c-2.2-0.5-5.4-0.4-8.1,1.7c-2.5,1.9-4,4.9-3.8,8c0.3,5.1,5.2,8,8.5,8.9c2,0.5,3.7,0.4,4.8,0.3l-1.2,4.2l3.8,3.4l15-16
		c0.1-0.1,0.2-0.3,0.3-0.4l1-1.8c0.1-0.2,0.2-0.4,0.2-0.7C323.4,256.9,323.1,254,321.6,251.1z M309,264.7l-1.7,1.2
		c-0.2,0.1-0.4,0.2-0.6,0.2c-4.4,0.6-8.2-2.7-8.5-4.7c-0.3-2.1,3.1-3.9,5.5-3.7c0.2,0,0.5,0.1,0.8,0.2l5.9,4.7l-0.8,1.3
		C309.5,264.2,309.3,264.5,309,264.7z"/>
	<path id="t" class="st3" d="M289.6,228.9l-2.9-3l2.3-2.6l4.4,1.8l6.8-3l3.4,3.6l-4.1,4.6l5.6,5.3l-4.3,4.4l-5.7-6l-10.6,11.7
		c-0.2,0.4-0.3,0.8-0.3,1.1c-0.1,2,1.9,4.1,5,5.4l-3.7,4.5c-0.6-0.3-1.4-0.8-2.3-1.4c-1.6-1.2-7.7-5.5-7-10.5
		c0.1-0.8,0.5-2.6,2.6-4.5"/>
	<path id="e" class="st3" d="M282.2,214.2c-1.8-4.4-6.1-6.4-7-6.8c-1.1-0.5-5.3-2.5-10-1c-3.2,1-5,3.1-6.3,4.5
		c-1.2,1.3-3.9,4.4-4.4,9.2c-0.5,5,1.9,8.7,2.8,10.2c3.5,5.5,8.9,7.3,10.5,7.8c3.7-2.6,4.4-3.9,4.2-4.7c-0.2-0.7-1.2-0.6-3.3-1.5
		c-1.1-0.4-3.8-1.6-5.8-4.2c-0.7-0.9-1.7-2.2-1.9-4.1c-0.3-2.7,1.2-5.6,2.4-5.6c0.5,0,0.8,0.6,1.9,1.9c0.2,0.2,1.2,1.2,3.2,3.1
		c3.5,3.3,8.1,7.5,8.5,7.9C282.3,226.2,284.3,219.5,282.2,214.2z M275.3,222.4l-8.3-7.5c2.4-3.1,6.8-3.3,9-1
		C278,216,278,220,275.3,222.4z"/>
	<polygon id="m" class="st3" points="214,189.2 240.7,161.2 248.3,168.6 234.7,196.2 262,181.9 269.3,189.2 243.3,216.6 238,211.6 
		259.3,190.2 231.3,204.9 225.7,199.6 240,171.6 219.7,193.2 	"/>
</g>
<g id="ribbon">
	<path class="st6" d="M544.7,368.9c-1.3-22-2.7-25.3-9-37c-6.3-11.7-10.7-15-15-20.7c-4.3-5.7,3-11.8,3-11.8s19.9-29.1,20.7-48.2
		c0.7-14.8,0.9-32.3-9.7-50.3c0,0-16-24.5-38-33.3c-22-8.8-34.5-6.2-34.5-6.2s-22.3,0.8-45.7,18.7L304.7,286.2L190,177.6
		c0,0-40-35.7-89-1.7c0,0-44,34-32,89.5c0,0,11.8,29.2,20.2,35.3c8.3,6.2-0.3,13-0.3,13S66,341.1,67,368.4c1,27.3,9.3,48,24.8,63.5
		s32.2,20,32.2,20s37.4,9.8,58.3-8.6L306,344.9l117.3,96c0,0,24.7,16,55.3,12s46.7-26,54-35.3C540,408.2,546,390.9,544.7,368.9z
		 M265.5,318.9c-26.6,21-53.2,42-79.8,63c-8.5,7.4-15.6,13.1-20.9,17.3c-2.5,1.9-5,3.9-8.9,5.5c-1.6,0.7-8.7,3.4-16.3,2.3
		c-14.1-2.1-23.4-16.6-26-27.8c-1.7-7.1-0.7-14.1-0.4-16.8c1-7.3,3.2-13.1,5.1-16.9c2.8-4.9,5.9-10,9.2-15.3c2.5-3.8,4.9-7.5,7.4-11
		c0.9-1.3,2-3.3,2.7-5.9c0.8-3,0.8-5.4,0.7-7.5c-0.1-2.3-0.4-5.6-1.7-9.6c-17.5-19-21.6-39.2-21.6-39.2c-4.5-23,4.5-33.5,4.5-33.5
		c6.3-8.5,8.4-11.3,12.3-12.8c1.4-0.5,6.1-2.3,9.8-2.7c3.4-0.4,6.3,0.5,10.8,1.2c8.1,1.3,14,7.3,17.2,11.3
		c33.3,31.5,66.7,63,100,94.5L265.5,318.9z M497.9,379.4c-2.6,11.2-11.8,25.6-25.8,27.8c-7.5,1.2-14.6-1.6-16.1-2.3
		c-3.9-1.6-6.4-3.6-8.8-5.5c-5.2-4.1-12.2-9.9-20.7-17.3c-26.3-21-52.7-42-79-63l-4-3.8c33-31.5,66-63,99-94.5c3.1-4,9-10.1,17-11.3
		c4.4-0.7,7.3-1.5,10.7-1.2c3.7,0.4,8.3,2.1,9.7,2.7c3.9,1.6,5.9,4.3,12.2,12.8c0,0,9,10.5,4.5,33.5c0,0-4,20.2-21.3,39.2
		c-1.3,3.9-1.6,7.3-1.7,9.6c-0.1,2.1-0.1,4.5,0.7,7.5c0.7,2.6,1.9,4.6,2.7,5.9c2.4,3.5,4.9,7.1,7.3,11c3.3,5.2,6.4,10.3,9.1,15.3
		c1.8,3.8,4,9.5,5,16.9C498.6,365.3,499.5,372.3,497.9,379.4z"/>
</g>
</svg>
